<svg xmlns="http://www.w3.org/2000/svg" viewBox="0 0 64 64" role="img" aria-label="Film clapper">
  <defs>
    <linearGradient id="g" x1="0" y1="0" x2="1" y2="1">
      <stop offset="0" stop-color="#e8b658" />
      <stop offset="1" stop-color="#6ea8fe" />
    </linearGradient>
  </defs>
  <rect width="64" height="64" rx="14" fill="#0b1020" />
  <g transform="rotate(-8 32 34)">
    <rect x="12" y="30" width="40" height="22" rx="3" fill="url(#g)" />
    <rect x="12" y="22" width="40" height="9" rx="2" fill="#e7ebf5" />
    <g fill="#0b1020">
      <polygon points="14,22 19,22 16,31 11,31" />
      <polygon points="22,22 27,22 24,31 19,31" />
      <polygon points="30,22 35,22 32,31 27,31" />
      <polygon points="38,22 43,22 40,31 35,31" />
      <polygon points="46,22 51,22 48,31 43,31" />
    </g>
  </g>
</svg>
