<svg xmlns="http://www.w3.org/2000/svg" viewBox="0 0 1200 630" role="img" aria-label="Family Movie Watchlist">
  <defs>
    <linearGradient id="bg" x1="0" y1="0" x2="1" y2="1">
      <stop offset="0" stop-color="#0b1020" />
      <stop offset="1" stop-color="#161c30" />
    </linearGradient>
    <linearGradient id="accent" x1="0" y1="0" x2="1" y2="0">
      <stop offset="0" stop-color="#e8b658" />
      <stop offset="1" stop-color="#6ea8fe" />
    </linearGradient>
  </defs>
  <rect width="1200" height="630" fill="url(#bg)" />
  <ellipse cx="600" cy="-40" rx="700" ry="320" fill="#6ea8fe" opacity="0.10" />

  <!-- Film strip top -->
  <rect x="0" y="40" width="1200" height="34" fill="#0e1322" />
  <g fill="#e8b658">
    <rect x="20" y="50" width="22" height="14" rx="2" />
    <rect x="74" y="50" width="22" height="14" rx="2" />
    <rect x="128" y="50" width="22" height="14" rx="2" />
    <rect x="182" y="50" width="22" height="14" rx="2" />
    <rect x="236" y="50" width="22" height="14" rx="2" />
    <rect x="290" y="50" width="22" height="14" rx="2" />
    <rect x="344" y="50" width="22" height="14" rx="2" />
    <rect x="398" y="50" width="22" height="14" rx="2" />
    <rect x="452" y="50" width="22" height="14" rx="2" />
    <rect x="506" y="50" width="22" height="14" rx="2" />
    <rect x="560" y="50" width="22" height="14" rx="2" />
    <rect x="614" y="50" width="22" height="14" rx="2" />
    <rect x="668" y="50" width="22" height="14" rx="2" />
    <rect x="722" y="50" width="22" height="14" rx="2" />
    <rect x="776" y="50" width="22" height="14" rx="2" />
    <rect x="830" y="50" width="22" height="14" rx="2" />
    <rect x="884" y="50" width="22" height="14" rx="2" />
    <rect x="938" y="50" width="22" height="14" rx="2" />
    <rect x="992" y="50" width="22" height="14" rx="2" />
    <rect x="1046" y="50" width="22" height="14" rx="2" />
    <rect x="1100" y="50" width="22" height="14" rx="2" />
    <rect x="1154" y="50" width="22" height="14" rx="2" />
  </g>

  <text x="100" y="300" font-family="Segoe UI, system-ui, sans-serif" font-size="92" font-weight="800" fill="#e7ebf5">
    <tspan>🎬</tspan>
  </text>
  <text x="240" y="300" font-family="Segoe UI, system-ui, sans-serif" font-size="78" font-weight="800" fill="url(#accent)">Family Movie</text>
  <text x="100" y="400" font-family="Segoe UI, system-ui, sans-serif" font-size="78" font-weight="800" fill="#e7ebf5">Watchlist</text>
  <text x="103" y="470" font-family="Segoe UI, system-ui, sans-serif" font-size="34" fill="#9aa3bd">Trailers &amp; thoughtful family discussion topics</text>

  <rect x="0" y="556" width="1200" height="34" fill="#0e1322" />
  <rect x="0" y="590" width="1200" height="6" fill="url(#accent)" />
</svg>
